<?xml version="1.0" encoding="iso-8859-1"?>
<!-- Generator: Adobe Illustrator 18.0.0, SVG Export Plug-In . SVG Version: 6.00 Build 0)  -->
<!DOCTYPE svg PUBLIC "-//W3C//DTD SVG 1.1//EN" "http://www.w3.org/Graphics/SVG/1.1/DTD/svg11.dtd">
<svg version="1.1" id="Capa_1" xmlns="http://www.w3.org/2000/svg" xmlns:xlink="http://www.w3.org/1999/xlink" x="0px" y="0px"
	 viewBox="0 0 344 344" style="enable-background:new 0 0 344 344;" xml:space="preserve">
<g id="Pantalla_cine">
	<polygon points="145.481,183.389 161.371,183.389 161.371,172.389 145.481,172.389 145.481,167.635 161.371,167.635 
		161.371,156.635 134.481,156.635 134.481,172.389 134.481,183.389 134.481,197.469 145.481,197.469 	"/>
	<rect x="165.006" y="156.635" width="11" height="40.834"/>
	<polygon points="190.679,180.837 201.387,197.469 210.06,197.469 210.06,156.635 199.06,156.635 199.06,173.535 187.973,156.315 
		179.679,156.315 179.679,197.469 190.679,197.469 	"/>
	<polygon style="fill:#FFFFFF;" points="225.167,208.469 225.167,205.562 225.167,197.469 210.06,197.469 201.387,197.469 
		190.679,197.469 179.679,197.469 176.006,197.469 165.006,197.469 145.481,197.469 134.481,197.469 118.833,197.469 
		118.833,205.562 118.833,208.469 118.833,216.562 225.167,216.562 	"/>
	<polygon style="fill:#FFFFFF;" points="225.167,156.315 225.167,149.222 225.167,145.315 225.167,138.222 118.833,138.222 
		118.833,145.315 118.833,149.222 118.833,156.315 179.679,156.315 187.973,156.315 	"/>
	<path d="M338,58.116H6c-3.314,0-6,2.686-6,6v215.769c0,3.314,2.686,6,6,6h332c3.313,0,6-2.686,6-6V64.116
		C344,60.802,341.313,58.116,338,58.116z M12,100.919c106.19-9.823,213.81-9.823,320,0v150.808c-106.196-9.755-213.804-9.755-320,0
		V100.919z M332,70.116v18.753c-106.196-9.755-213.804-9.755-320,0V70.116H332z M12,273.884v-10.108
		c106.19-9.823,213.81-9.823,320,0v10.108H12z"/>
</g>
<g>
</g>
<g>
</g>
<g>
</g>
<g>
</g>
<g>
</g>
<g>
</g>
<g>
</g>
<g>
</g>
<g>
</g>
<g>
</g>
<g>
</g>
<g>
</g>
<g>
</g>
<g>
</g>
<g>
</g>
</svg>
