<svg height="480pt" viewBox="0 0 480 480" width="480pt" xmlns="http://www.w3.org/2000/svg"><path d="m24 176h160v232h-160zm0 0" fill="#898989"/><path d="m16 144h176c4.417969 0 8 3.582031 8 8v16c0 4.417969-3.582031 8-8 8h-176c-4.417969 0-8-3.582031-8-8v-16c0-4.417969 3.582031-8 8-8zm0 0" fill="#ffd04a"/><path d="m16 408h176c4.417969 0 8 3.582031 8 8v16c0 4.417969-3.582031 8-8 8h-176c-4.417969 0-8-3.582031-8-8v-16c0-4.417969 3.582031-8 8-8zm0 0" fill="#ffd04a"/><path d="m184 208h112c8.835938 0 16 7.164062 16 16v136c0 8.835938-7.164062 16-16 16h-112zm0 0" fill="#707070"/><path d="m480 208h-88c-8.835938 0-16 7.164062-16 16v136c0 8.835938 7.164062 16 16 16h88" fill="#898989"/><path d="m96 112h16c8.835938 0 16 7.164062 16 16v16h-48v-16c0-8.835938 7.164062-16 16-16zm0 0" fill="#e6bb43"/><path d="m80 440h48v16c0 8.835938-7.164062 16-16 16h-16c-8.835938 0-16-7.164062-16-16zm0 0" fill="#e6bb43"/><path d="m296 200h-104v-16c8.832031-.007812 15.992188-7.167969 16-16v-16c-.007812-8.832031-7.167969-15.992188-16-16h-56v-8c-.015625-13.25-10.75-23.984375-24-24h-16c-13.25.015625-23.984375 10.75-24 24v8h-56c-8.832031.007812-15.9921875 7.167969-16 16v16c.0078125 8.832031 7.167969 15.992188 16 16v216c-8.832031.007812-15.9921875 7.167969-16 16v16c.0078125 8.832031 7.167969 15.992188 16 16h56v8c.015625 13.25 10.75 23.984375 24 24h16c13.25-.015625 23.984375-10.75 24-24v-8h56c8.832031-.007812 15.992188-7.167969 16-16v-16c-.007812-8.832031-7.167969-15.992188-16-16v-16h104c13.25-.015625 23.984375-10.75 24-24v-136c-.015625-13.25-10.75-23.984375-24-24zm-208-72c.003906-4.414062 3.585938-7.996094 8-8h16c4.414062.003906 7.996094 3.585938 8 8v8h-32zm32 328c-.003906 4.414062-3.585938 7.996094-8 8h-16c-4.414062-.003906-7.996094-3.585938-8-8v-8h32zm72-24h-176v-16h176zm-160-32v-216h144v216zm-16-232v-16h176v16zm288 192c-.003906 4.414062-3.585938 7.996094-8 8h-104v-152h104c4.414062.003906 7.996094 3.585938 8 8zm0 0"/><path d="m48 200h16v16h-16zm0 0"/><path d="m80 200h16v16h-16zm0 0"/><path d="m112 200h16v16h-16zm0 0"/><path d="m208 232h16v16h-16zm0 0"/><path d="m240 232h16v16h-16zm0 0"/><path d="m272 232h16v16h-16zm0 0"/><path d="m208 336h16v16h-16zm0 0"/><path d="m240 336h16v16h-16zm0 0"/><path d="m272 336h16v16h-16zm0 0"/><path d="m368 224v136c.015625 13.25 10.75 23.984375 24 24h88v-16h-88c-4.414062-.003906-7.996094-3.585938-8-8v-136c.003906-4.414062 3.585938-7.996094 8-8h88v-16h-88c-13.25.015625-23.984375 10.75-24 24zm0 0"/><path d="m400 232h16v16h-16zm0 0"/><path d="m432 232h16v16h-16zm0 0"/><path d="m464 232h16v16h-16zm0 0"/><path d="m400 336h16v16h-16zm0 0"/><path d="m432 336h16v16h-16zm0 0"/><path d="m464 336h16v16h-16zm0 0"/><path d="m48 368h16v16h-16zm0 0"/><path d="m80 368h16v16h-16zm0 0"/><path d="m112 368h16v16h-16zm0 0"/><path d="m144 200h16v16h-16zm0 0"/><path d="m144 368h16v16h-16zm0 0"/><path d="m336 232h16v16h-16zm0 0"/><path d="m336 264h16v16h-16zm0 0"/><path d="m336 296h16v16h-16zm0 0"/><path d="m336 328h16v16h-16zm0 0"/><path d="m336 360h16v16h-16zm0 0"/><path d="m336 392h16v16h-16zm0 0"/><path d="m352 104v-32.203125c6.882812 5.289063 15.316406 8.171875 24 8.203125 22.089844 0 40-17.910156 40-40s-17.910156-40-40-40-40 17.910156-40 40v64h-64c-22.089844 0-40 17.910156-40 40s17.910156 40 40 40 40-17.910156 40-40c-.03125-8.683594-2.914062-17.117188-8.203125-24h32.203125v96h16v-96h128v-16zm24-88c13.253906 0 24 10.746094 24 24s-10.746094 24-24 24-24-10.746094-24-24c.015625-13.25 10.75-23.984375 24-24zm-104 152c-13.253906 0-24-10.746094-24-24s10.746094-24 24-24 24 10.746094 24 24c-.015625 13.25-10.75 23.984375-24 24zm0 0"/></svg>